<svg width="18" height="13" viewBox="0 0 18 13" fill="none" xmlns="http://www.w3.org/2000/svg">
<path fill-rule="evenodd" clip-rule="evenodd" d="M17.9998 6.42857C17.9998 9.97897 14.546 12.8571 10.2856 12.8571C8.76281 12.8571 7.34311 12.4895 6.14733 11.8548L0 12.8571L3.37451 9.28791C2.86043 8.42668 2.57134 7.45576 2.57134 6.42857C2.57134 2.87817 6.02511 0 10.2856 0C14.546 0 17.9998 2.87817 17.9998 6.42857ZM8.00005 5.99997C8.00005 6.55225 7.55233 6.99997 7.00005 6.99997C6.44776 6.99997 6.00005 6.55225 6.00005 5.99997C6.00005 5.44768 6.44776 4.99997 7.00005 4.99997C7.55233 4.99997 8.00005 5.44768 8.00005 5.99997ZM10.4278 6.99997C10.9801 6.99997 11.4278 6.55225 11.4278 5.99997C11.4278 5.44768 10.9801 4.99997 10.4278 4.99997C9.8755 4.99997 9.42778 5.44768 9.42778 5.99997C9.42778 6.55225 9.8755 6.99997 10.4278 6.99997ZM14.8575 5.99997C14.8575 6.55225 14.4098 6.99997 13.8575 6.99997C13.3052 6.99997 12.8575 6.55225 12.8575 5.99997C12.8575 5.44768 13.3052 4.99997 13.8575 4.99997C14.4098 4.99997 14.8575 5.44768 14.8575 5.99997Z" fill="white"/>
</svg>
